<svg height="512" viewBox="0 0 128 128" width="512" xmlns="http://www.w3.org/2000/svg"><g><path d="m120.627 94.327-23.938-21.088a13.781 13.781 0 0 0 -8.561-3.427l-12.073-.474-5.334-5.338 39.117-39.127a20.734 20.734 0 0 1 7.886-4.707 7.809 7.809 0 0 0 2.893-1.822l2.12-2.12a1.749 1.749 0 0 0 0-2.475l-8.49-8.49a1.8 1.8 0 0 0 -2.475 0l-2.128 2.129a7.776 7.776 0 0 0 -1.814 2.886 20.741 20.741 0 0 1 -4.707 7.884l-39.123 39.121-39.123-39.119a20.74 20.74 0 0 1 -4.708-7.882 7.656 7.656 0 0 0 -1.825-2.894l-2.121-2.121a1.749 1.749 0 0 0 -2.475 0l-8.485 8.485a1.749 1.749 0 0 0 0 2.475l2.121 2.121a7.666 7.666 0 0 0 2.895 1.826 20.729 20.729 0 0 1 7.881 4.707l39.119 39.123-5.342 5.342-12.067.474a13.779 13.779 0 0 0 -8.557 3.425l-23.942 21.088a7.762 7.762 0 0 0 -.349 11.3l15.351 15.351a7.787 7.787 0 0 0 5.486 2.27h.236a7.789 7.789 0 0 0 5.578-2.617l21.088-23.944a13.775 13.775 0 0 0 3.427-8.561l.474-12.065 5.338-5.342 5.334 5.334.474 12.075a13.779 13.779 0 0 0 3.425 8.557l21.092 23.942a7.786 7.786 0 0 0 5.576 2.615h.236a7.787 7.787 0 0 0 5.486-2.27l15.351-15.351a7.762 7.762 0 0 0 -.351-11.3zm-15.027-73.689a24.181 24.181 0 0 0 5.533-9.2 4.3 4.3 0 0 1 1-1.586l.882-.882 6.015 6.015-.873.873a4.326 4.326 0 0 1 -1.593 1.007 24.175 24.175 0 0 0 -9.2 5.533l-39.118 39.131-1.775-1.775zm-94.159-3.769a4.216 4.216 0 0 1 -1.583-1l-.883-.884 6.01-6.01.884.883a4.2 4.2 0 0 1 1 1.583 24.175 24.175 0 0 0 5.531 9.193l64.178 64.176a1.38 1.38 0 0 1 .168 1.836 1.243 1.243 0 0 1 -.9.417 1.274 1.274 0 0 1 -.917-.365l-64.3-64.3a24.161 24.161 0 0 0 -9.188-5.529zm43.25 71.121a10.27 10.27 0 0 1 -2.554 6.383l-21.088 23.938a4.263 4.263 0 0 1 -6.2.192l-15.349-15.35a4.261 4.261 0 0 1 .189-6.2l23.94-21.092a10.268 10.268 0 0 1 6.379-2.552l8.283-.325-9.354 9.354a4.866 4.866 0 0 0 -.288 6.652 4.712 4.712 0 0 0 3.4 1.573h.135a4.792 4.792 0 0 0 3.366-1.387l9.469-9.469zm-11.613-1.29a1.262 1.262 0 0 1 -1.822-.043 1.4 1.4 0 0 1 .161-1.847l18.337-18.339 1.775 1.775zm75.422 16.453-15.347 15.347a4.261 4.261 0 0 1 -6.2-.189l-21.092-23.94a10.268 10.268 0 0 1 -2.552-6.379l-.326-8.292 9.472 9.471a4.769 4.769 0 0 0 3.361 1.392h.122a4.713 4.713 0 0 0 3.409-1.573 4.838 4.838 0 0 0 -.295-6.654l-9.352-9.353 8.289.326a10.27 10.27 0 0 1 6.383 2.554l23.938 21.088a4.263 4.263 0 0 1 .192 6.2z"/><path d="m105.55 89.042a1.75 1.75 0 1 0 -2.314 2.625l4.386 3.866a1.75 1.75 0 0 0 2.315-2.626z"/></g></svg>